<svg width="24" height="25" viewBox="0 0 24 25" fill="none" xmlns="http://www.w3.org/2000/svg">
<path d="M13.9271 0.0141865C13.8286 0.00127857 13.7279 0.0112807 13.6308 0.0531171C13.6204 0.0585527 13.6104 0.064007 13.6003 0.0692832C13.4898 0.127319 13.4896 0.127566 13.0265 0.481023C12.9439 0.544199 12.8609 0.607244 12.7775 0.669407C12.6714 0.748428 12.5656 0.827879 12.4605 0.908269C12.3778 0.971477 12.2948 1.03447 12.2115 1.09665C12.1053 1.17573 11.9993 1.2554 11.8941 1.33585C11.8115 1.39899 11.7287 1.4621 11.6454 1.52423C11.4905 1.63962 11.3365 1.75655 11.183 1.87394C11.0407 1.98277 10.8982 2.0916 10.7546 2.19859C10.6598 2.26917 10.5655 2.34057 10.4715 2.41237C10.3889 2.47557 10.3059 2.53858 10.2225 2.60076C10.1164 2.67981 10.0104 2.75952 9.90517 2.83995C9.82259 2.90309 9.73978 2.96588 9.65648 3.028C9.55033 3.10706 9.44463 3.18677 9.33945 3.2672C9.25679 3.3304 9.17381 3.39339 9.09043 3.45558C8.98425 3.53465 8.87829 3.61432 8.77308 3.69477C8.70027 3.75049 8.6274 3.80606 8.55385 3.86072C8.50696 3.89551 8.46001 3.93057 8.41331 3.96564C8.3931 3.98086 8.37265 3.99595 8.35243 4.01116C8.29884 4.05101 8.2471 4.09074 8.19926 4.13785C8.06377 4.29524 8.00947 4.45989 8.00756 4.66968C8.00774 4.70183 8.00801 4.73421 8.00788 4.76635C8.0075 4.82701 8.00743 4.88781 8.00756 4.94847C8.0077 5.01461 8.00746 5.08094 8.00723 5.14708C8.00683 5.26183 8.00658 5.37676 8.00658 5.49151C8.00661 5.65877 8.00632 5.82607 8.00594 5.99332C8.0053 6.26456 8.00516 6.536 8.00497 6.80723C8.00478 7.07147 8.00447 7.3358 8.00399 7.60003C8.00395 7.62499 8.00404 7.6251 8.00399 7.64952C8.00385 7.73155 8.0035 7.81394 8.00335 7.89597C8.00207 8.57877 8.00098 9.26164 8.00043 9.94444C8.00042 9.95629 8.00044 9.96792 8.00043 9.97941C7.97111 9.95798 7.94168 9.93651 7.91235 9.91508C7.90002 9.90607 7.88805 9.8971 7.87608 9.88836C7.78772 9.82377 7.69906 9.75924 7.61022 9.69535C7.58207 9.67514 7.55385 9.65488 7.5257 9.63465C7.51011 9.62344 7.49486 9.61254 7.47972 9.60166C7.40527 9.54815 7.33069 9.49455 7.25628 9.44098C7.22708 9.41996 7.19773 9.39866 7.16852 9.37764C7.15362 9.36692 7.13895 9.35671 7.12448 9.3463C6.71396 9.05081 6.3035 8.75496 5.89298 8.45947C5.86368 8.43839 5.83419 8.41721 5.80489 8.39613C5.73141 8.34323 5.65788 8.29031 5.58437 8.23744C5.44182 8.13491 5.29918 8.03224 5.15692 7.92929C5.13759 7.9153 5.13738 7.91533 5.11839 7.90158C5.05731 7.85747 4.99617 7.81337 4.93575 7.76829C4.75877 7.63544 4.58569 7.49347 4.35934 7.47796C4.19885 7.47643 4.06058 7.51919 3.93513 7.60663C3.94384 7.61114 3.95271 7.61584 3.96168 7.62049C3.90111 7.68316 3.84015 7.74595 3.77775 7.81052C3.77776 7.77671 3.78755 7.75099 3.80268 7.72804C3.67357 7.89664 3.64631 8.07694 3.64757 8.29451C3.64774 8.32248 3.64794 8.35067 3.64789 8.37864C3.64764 8.45657 3.64732 8.53463 3.64757 8.61256C3.64784 8.69818 3.64799 8.78394 3.64789 8.86956C3.64772 9.01984 3.64766 9.17029 3.64789 9.32056C3.64828 9.55621 3.6486 9.79194 3.64854 10.0276C3.64845 10.4073 3.6485 10.7874 3.64887 11.1671C3.64923 11.5441 3.64945 11.9211 3.64951 12.2981V12.6544C3.64955 12.9201 3.64977 13.1861 3.64984 13.4518C3.64984 13.4642 3.64983 13.4764 3.64984 13.4884C3.65 14.077 3.6504 14.6656 3.65081 15.2542C3.65095 15.4585 3.651 15.6631 3.65113 15.8675C3.65114 15.8805 3.65112 15.8934 3.65113 15.9061C3.65152 16.4955 3.65192 17.085 3.6521 17.6745V18.5507C3.65226 19.056 3.6529 19.5614 3.65307 20.0667C3.65308 20.0907 3.65307 20.1149 3.65307 20.139C3.65351 21.3735 3.65394 22.6081 3.65469 23.8426C3.65471 23.8618 3.65468 23.8805 3.65469 23.8991C3.65488 24.1986 3.65485 24.1988 3.65534 24.971H4.98659C4.99179 19.7178 4.99676 14.6189 5.00181 9.52016C5.14392 9.62077 5.28632 9.72094 5.42764 9.8227C5.44118 9.83247 5.45433 9.84225 5.46747 9.85173C5.57751 9.93103 5.68762 10.0103 5.79745 10.0899C5.93564 10.1901 6.07405 10.2902 6.21259 10.3898C6.28647 10.443 6.36055 10.496 6.43441 10.5492C6.46369 10.5703 6.49289 10.5915 6.52217 10.6125C6.53712 10.6233 6.55169 10.6338 6.56621 10.6442C6.72748 10.7603 6.88873 10.8765 7.05 10.9926L7.18212 11.0876C7.25572 11.1406 7.32942 11.1936 7.40297 11.2466C7.42568 11.263 7.42599 11.2629 7.44831 11.279C7.47817 11.3005 7.50815 11.3221 7.53801 11.3436C7.55134 11.3533 7.56425 11.3627 7.57719 11.372C7.5907 11.3817 7.60359 11.3916 7.6167 11.401C7.65824 11.4329 7.69716 11.4613 7.74429 11.4835C7.82943 11.5219 7.90449 11.5651 7.97194 11.632C8.05177 11.8655 8.05167 11.8658 8.03735 12.1239C8.03612 12.1912 8.03618 12.2585 8.0367 12.3258C8.03766 12.4438 8.03765 12.5618 8.0367 12.6798C8.03515 12.8566 8.03498 13.0335 8.03541 13.2103C8.03617 13.5078 8.0358 13.8053 8.03443 14.1028C8.03305 14.3987 8.03185 14.6946 8.03184 14.9906V15.3261C8.03201 15.9874 8.03123 16.649 8.02925 17.3102C8.02732 17.9537 8.02586 18.5971 8.02537 19.2406C8.02535 19.261 8.02538 19.2811 8.02537 19.301C8.02521 19.5004 8.02485 19.7 8.02472 19.8994C8.02445 20.3062 8.02415 20.7131 8.02375 21.1198C8.02372 21.1482 8.02377 21.1484 8.02375 21.1762C8.02279 22.1457 8.02072 23.1153 8.01824 24.0848C8.0182 24.0999 8.01828 24.1147 8.01824 24.1293C8.01795 24.242 8.01757 24.3548 8.01727 24.4675C8.0168 24.6386 8.01611 24.8049 8.01565 24.971H9.3469C9.3521 22.3229 9.35707 19.7524 9.36212 17.1822C9.42221 17.2237 9.48258 17.265 9.54216 17.3073C9.55428 17.316 9.56635 17.3245 9.57811 17.333C9.59207 17.3431 9.60568 17.3529 9.61924 17.3627C9.64904 17.3842 9.67912 17.4059 9.70893 17.4274C9.72503 17.439 9.74059 17.4504 9.75621 17.4617C9.83214 17.5164 9.9082 17.5713 9.98419 17.626C10.0133 17.6469 10.0425 17.6677 10.0716 17.6886C10.1156 17.7203 10.1161 17.7205 10.9955 18.3534C11.0248 18.3745 11.0543 18.3957 11.0836 18.4168C11.1571 18.4697 11.2306 18.5229 11.3041 18.5758C11.4451 18.6772 11.5861 18.7788 11.7267 18.8806C11.8773 18.9898 12.0284 19.0987 12.1794 19.2073C12.2244 19.2396 12.2695 19.2722 12.3144 19.3046C12.4662 19.4141 12.618 19.5236 12.771 19.6312C12.7918 19.6457 12.8128 19.6602 12.8335 19.6748C12.8689 19.7019 12.9037 19.727 12.9433 19.747C13.024 19.7871 13.0959 19.8321 13.1599 19.8975C13.2351 20.1128 13.235 20.113 13.2211 20.3508C13.2199 20.4115 13.2198 20.4722 13.2202 20.5329C13.2209 20.6384 13.2207 20.7441 13.2195 20.8496C13.2178 21.0032 13.2172 21.1569 13.2173 21.3105C13.2175 21.5596 13.2165 21.8087 13.2147 22.0578C13.2129 22.3004 13.2116 22.5432 13.2111 22.7859C13.2111 22.8013 13.2111 22.8165 13.2111 22.8314C13.211 22.9067 13.2109 22.9822 13.2108 23.0574C13.2101 23.5422 13.2085 24.0272 13.2056 24.512C13.2046 24.668 13.2037 24.8196 13.2027 24.971H13.9271V25H1.32639C0.593845 25 0 24.395 0 23.6486V1.35135C3.63182e-07 0.605021 0.593845 1.36034e-08 1.32639 0H13.9271V0.0141865ZM9.37248 12.6554C9.38379 12.6627 9.39486 12.6698 9.40583 12.6768C9.43947 12.6985 9.473 12.7203 9.5059 12.7432C9.51613 12.7506 9.52608 12.7583 9.53601 12.7656C9.55352 12.7783 9.55373 12.7784 9.57098 12.791C9.59657 12.8097 9.62243 12.8284 9.64806 12.8471C9.66893 12.8623 9.66895 12.8625 9.68951 12.8774C9.761 12.9295 9.83276 12.9812 9.90453 13.0328C9.92662 13.0487 9.92688 13.0489 9.94857 13.0645C9.97824 13.0858 10.0079 13.1072 10.0376 13.1285C10.1114 13.1816 10.1853 13.2347 10.2591 13.2878L10.3912 13.3829C11.0363 13.8472 11.6816 14.3118 12.3267 14.7761C12.356 14.7972 12.3852 14.8184 12.4145 14.8395C12.4882 14.8926 12.5622 14.9454 12.636 14.9985C12.6515 15.0096 12.6666 15.0206 12.6817 15.0315C12.7118 15.0531 12.7419 15.0748 12.772 15.0965C12.7987 15.1157 12.8259 15.135 12.8526 15.1542C12.8915 15.1846 12.9282 15.2134 12.9737 15.2321C13.0378 15.2563 13.093 15.2854 13.146 15.3301C13.2563 15.6224 13.2562 15.6224 13.2299 15.9539C13.228 16.0324 13.2273 16.111 13.227 16.1895C13.2264 16.3377 13.2247 16.486 13.2221 16.6342C13.2191 16.8042 13.2173 16.9743 13.216 17.1443C13.2132 17.5105 13.2088 17.8767 13.2027 18.2429C13.1842 18.2443 13.1841 18.2442 13.1603 18.2251C13.1481 18.2165 13.1361 18.208 13.1243 18.1997C13.1107 18.1901 13.0974 18.1807 13.0842 18.1713C13.0619 18.1555 13.0617 18.1555 13.0398 18.14C12.8885 18.0328 12.7379 17.9245 12.5874 17.816C12.514 17.763 12.4401 17.7099 12.3666 17.657C12.3373 17.6359 12.308 17.615 12.2788 17.594C12.2348 17.5623 12.2345 17.5622 11.0029 16.6758C10.9737 16.6547 10.9445 16.6335 10.9152 16.6124C10.8417 16.5595 10.7679 16.5067 10.6943 16.4538C10.5533 16.3524 10.4124 16.2505 10.2717 16.1486C10.1637 16.0702 10.0552 15.992 9.94695 15.914C9.93152 15.9029 9.91659 15.8918 9.90161 15.881C9.83204 15.8309 9.76235 15.7808 9.69242 15.7312C9.68062 15.7229 9.6689 15.7146 9.65745 15.7065C9.6362 15.6915 9.61491 15.6763 9.59365 15.6613C9.57554 15.6486 9.55731 15.6361 9.53925 15.6234C9.52128 15.6097 9.5029 15.5965 9.48452 15.5834C9.44514 15.5625 9.4115 15.541 9.37669 15.5125C9.32361 15.3847 9.32377 15.3845 9.33071 15.2403C9.33123 15.2132 9.33132 15.1857 9.33135 15.1585C9.33115 15.0844 9.33139 15.0102 9.33233 14.9361C9.33333 14.8574 9.33377 14.7786 9.33395 14.6999C9.33425 14.5512 9.33516 14.4023 9.33654 14.2535C9.33811 14.0829 9.33906 13.9121 9.33977 13.7415C9.34126 13.374 9.34368 13.0064 9.3469 12.6389C9.35553 12.6445 9.3641 12.65 9.37248 12.6554ZM13.2027 13.7313C13.165 13.7079 13.1271 13.6843 13.0906 13.659C13.0723 13.6457 13.0721 13.6456 13.0541 13.6326C13.0398 13.6223 13.0258 13.6122 13.012 13.6023C12.9814 13.5801 12.9509 13.558 12.9203 13.5359C12.9039 13.5241 12.8877 13.5125 12.8717 13.501C12.7951 13.4456 12.7183 13.3903 12.6415 13.335C12.6124 13.3141 12.5832 13.2933 12.5541 13.2723C12.51 13.2406 12.5101 13.2403 11.6305 12.6072C11.6012 12.5861 11.5718 12.565 11.5424 12.5439C11.4689 12.491 11.3954 12.4381 11.3219 12.3852C11.1809 12.2838 11.0397 12.1823 10.899 12.0803C10.7483 11.9711 10.5974 11.8621 10.4463 11.7534C10.3725 11.7003 10.2986 11.6472 10.2248 11.594C10.1367 11.5306 10.0484 11.4671 9.96022 11.4037C9.94498 11.3927 9.93 11.382 9.91521 11.3713C9.88555 11.35 9.85582 11.3287 9.82616 11.3073C9.79998 11.2885 9.77364 11.2694 9.74747 11.2506C9.70501 11.2177 9.66549 11.1885 9.61729 11.1655C9.52716 11.1241 9.44816 11.0769 9.37734 11.0051C9.29265 10.752 9.29255 10.7519 9.30739 10.474C9.30857 10.402 9.30836 10.3298 9.30772 10.2579C9.30639 10.1168 9.30659 9.97567 9.30772 9.83458C9.30906 9.66889 9.30895 9.50309 9.30869 9.33739C9.30818 9.04189 9.30909 8.74606 9.31095 8.45057C9.31278 8.16311 9.31366 7.87562 9.3129 7.58815C9.31202 7.27364 9.31152 6.9591 9.31257 6.64458C9.31269 6.61108 9.3131 6.57746 9.31322 6.54396V6.14608C9.31282 6.00351 9.31288 5.86073 9.31419 5.71817C9.31497 5.64539 9.31617 5.57255 9.31581 5.49976C9.31436 5.32754 9.30277 5.14438 9.3469 4.97684C9.38936 4.90288 9.44517 4.86164 9.51982 4.8264C9.57628 4.80254 9.57655 4.80288 9.61988 4.77196C9.80983 4.62188 9.80986 4.62157 10.0046 4.47833C10.0994 4.40773 10.194 4.33636 10.2879 4.26454C10.3706 4.20135 10.4536 4.13833 10.537 4.07616C10.6431 3.99711 10.7488 3.91738 10.854 3.83697C10.9366 3.77378 11.0196 3.71108 11.103 3.64891C11.2091 3.56986 11.3149 3.49014 11.42 3.40972C11.5027 3.34654 11.5857 3.2835 11.6691 3.22134C11.824 3.10591 11.9779 2.98873 12.1315 2.87129C12.331 2.71868 12.5315 2.56734 12.7331 2.41765C12.757 2.39994 12.7809 2.38193 12.8047 2.36421C12.8167 2.3553 12.8284 2.34679 12.84 2.33814C12.9238 2.2758 13.0065 2.21204 13.0877 2.14613C13.126 2.11465 13.1529 2.07981 13.2027 2.07981V13.7313Z" fill="#D4A373"/>
<path fill-rule="evenodd" clip-rule="evenodd" d="M14.0167 0.0532763C13.7943 -0.0425803 13.5531 0.0286633 13.3627 0.159759C13.3296 0.183989 13.2966 0.208514 13.2638 0.233213V24.9708H14.445C14.444 24.8195 14.4431 24.6681 14.4421 24.5121C14.4392 24.0273 14.4376 23.5422 14.4369 23.0573C14.4368 22.982 14.4365 22.9066 14.4364 22.8313C14.4364 22.8163 14.4364 22.8014 14.4364 22.786C14.4359 22.5433 14.4346 22.3005 14.4328 22.0578C14.431 21.8087 14.4302 21.5596 14.4304 21.3105C14.4305 21.1568 14.4298 21.0032 14.428 20.8495C14.4269 20.7441 14.4267 20.6385 14.4273 20.533C14.4277 20.4723 14.4277 20.4116 14.4264 20.3509C14.4125 20.1129 14.4125 20.1128 14.4877 19.8973C14.5517 19.832 14.6235 19.787 14.7042 19.747C14.7438 19.7269 14.7786 19.7019 14.8139 19.6748C14.8347 19.6602 14.8556 19.6457 14.8764 19.6311C15.0295 19.5235 15.1813 19.414 15.3331 19.3045C15.3781 19.2721 15.4233 19.2396 15.4683 19.2072C15.6193 19.0986 15.7701 18.9898 15.9207 18.8806C16.0613 18.7787 16.2023 18.6773 16.3433 18.5759C16.4169 18.523 16.4906 18.4699 16.5642 18.4169C16.5935 18.3958 16.6229 18.3747 16.6522 18.3536C17.5315 17.7206 17.5318 17.7205 17.5758 17.6888C17.605 17.6678 17.6342 17.6469 17.6633 17.626C17.7393 17.5713 17.8154 17.5163 17.8913 17.4615C17.907 17.4503 17.9226 17.4389 17.9388 17.4273C17.9686 17.4058 17.9984 17.3842 18.0282 17.3627C18.0418 17.3529 18.0555 17.3432 18.0695 17.3331C18.0813 17.3246 18.0931 17.316 18.1052 17.3072C18.1649 17.265 18.2252 17.2238 18.2853 17.1823C18.2904 19.7525 18.2954 22.3227 18.3006 24.9708H19.6318C19.6313 24.8047 19.6308 24.6386 19.6304 24.4675C19.6301 24.3548 19.6297 24.242 19.6294 24.1293C19.6294 24.1147 19.6294 24.1 19.6294 24.0849C19.6269 23.1154 19.6246 22.1459 19.6237 21.1764C19.6237 21.1483 19.6237 21.1482 19.6237 21.1197C19.6233 20.7129 19.623 20.3061 19.6227 19.8993C19.6226 19.6999 19.6224 19.5003 19.6223 19.3008C19.6222 19.281 19.6223 19.2611 19.6223 19.2407C19.6218 18.5972 19.6204 17.9537 19.6184 17.3102C19.6165 16.6489 19.6154 15.9875 19.6156 15.3262V14.9905C19.6156 14.6945 19.6146 14.3986 19.6132 14.1026C19.6118 13.8052 19.6115 13.5078 19.6122 13.2104C19.6127 13.0336 19.6124 12.8567 19.6108 12.6799C19.6099 12.5618 19.6098 12.4438 19.6108 12.3257C19.6113 12.2584 19.6116 12.1911 19.6103 12.1238C19.596 11.8657 19.5958 11.8656 19.6757 11.6321C19.7432 11.5652 19.8182 11.5218 19.9034 11.4835C19.9506 11.4612 19.9892 11.4328 20.0308 11.4009C20.0439 11.3914 20.0569 11.3818 20.0704 11.372C20.0833 11.3627 20.0964 11.3533 20.1097 11.3437C20.1396 11.3222 20.1695 11.3006 20.1994 11.2791C20.2217 11.263 20.2219 11.263 20.2447 11.2466C20.3183 11.1935 20.3919 11.1406 20.4655 11.0876C20.4949 11.0665 20.5242 11.0453 20.5535 11.0242C20.568 11.0138 20.5825 11.0032 20.5974 10.9924C20.7587 10.8764 20.92 10.7602 21.0813 10.6442C21.0958 10.6337 21.1105 10.6234 21.1254 10.6126C21.1547 10.5915 21.1839 10.5703 21.2132 10.5493C21.2871 10.4961 21.3611 10.4429 21.435 10.3898C21.5735 10.2901 21.712 10.1902 21.8502 10.0901C21.96 10.0104 22.07 9.931 22.18 9.8517C22.1932 9.8422 22.2065 9.83265 22.2201 9.82286C22.3614 9.7211 22.5037 9.62078 22.6458 9.52017C22.6508 14.6189 22.6558 19.7176 22.661 24.9708H23.9923C23.9928 24.1987 23.9926 24.1986 23.9927 23.8991C23.9928 23.8805 23.993 23.8618 23.993 23.8426C23.9937 22.6081 23.9942 21.3735 23.9946 20.1389C23.9947 20.1149 23.9946 20.0907 23.9946 20.0667C23.9948 19.5614 23.9952 19.056 23.9954 18.5508C23.9954 18.297 23.9955 18.0432 23.9956 17.7894C23.9956 17.7511 23.9956 17.7128 23.9956 17.6745C23.9958 17.085 23.9959 16.4955 23.9963 15.906C23.9963 15.8933 23.9963 15.8805 23.9963 15.8675C23.9965 15.6631 23.9967 15.4586 23.9968 15.2542C23.9972 14.6656 23.9976 14.077 23.9977 13.4884C23.9977 13.4763 23.9977 13.4641 23.9977 13.4517C23.9978 13.186 23.9979 12.9202 23.998 12.6545V12.2981C23.9981 11.9211 23.9983 11.544 23.9987 11.167C23.9991 10.7872 23.9993 10.4074 23.9992 10.0277C23.9991 9.79199 23.9993 9.55621 23.9997 9.32051C23.9999 9.17024 23.9998 9.01996 23.9997 8.86969C23.9996 8.78402 23.9996 8.69826 23.9999 8.6126C24.0001 8.53466 23.9999 8.45662 23.9997 8.37868C23.9996 8.3507 23.9997 8.32261 23.9999 8.29463C24.0012 8.07697 23.9741 7.8966 23.8449 7.72795C23.86 7.75092 23.8697 7.77668 23.8697 7.81052C23.8073 7.74595 23.7466 7.68315 23.686 7.62048C23.695 7.61583 23.7038 7.61119 23.7125 7.60668C23.587 7.5192 23.4488 7.47648 23.2883 7.47801C23.0619 7.49351 22.8888 7.63527 22.7118 7.76813C22.6514 7.81323 22.5903 7.85735 22.5292 7.90148C22.5101 7.91527 22.51 7.91526 22.4905 7.92933C22.3482 8.03229 22.2057 8.13491 22.0632 8.23744C21.9896 8.29034 21.9161 8.34326 21.8426 8.39618C21.8132 8.41728 21.7839 8.43843 21.7546 8.45953C21.344 8.75502 20.9335 9.05066 20.523 9.34615C20.5085 9.3566 20.4938 9.36694 20.4789 9.3777C20.4496 9.39876 20.4204 9.41999 20.3911 9.44105C20.3167 9.49461 20.2424 9.54825 20.1679 9.60176C20.1528 9.61264 20.1375 9.62333 20.1219 9.63454C20.0937 9.65482 20.0654 9.67517 20.0372 9.69542C19.9484 9.75931 19.8599 9.82384 19.7715 9.88842C19.7595 9.89719 19.7474 9.90601 19.7351 9.91505C19.7057 9.93648 19.6764 9.95794 19.6471 9.97938C19.647 9.96786 19.6471 9.95624 19.6471 9.94438C19.6465 9.26152 19.6455 8.57867 19.6442 7.89581C19.644 7.81378 19.6439 7.7316 19.6437 7.64957C19.6437 7.6251 19.6438 7.62501 19.6437 7.60002C19.6432 7.33579 19.6429 7.07155 19.6428 6.80732C19.6426 6.53605 19.6422 6.26468 19.6416 5.99341C19.6412 5.82613 19.6411 5.65884 19.6411 5.49156C19.6411 5.37675 19.6408 5.26177 19.6404 5.14697C19.6402 5.08082 19.64 5.01469 19.6401 4.94854C19.6403 4.88786 19.64 4.82707 19.6397 4.76639C19.6395 4.73423 19.6397 4.70192 19.6399 4.66976C19.638 4.4599 19.5837 4.29528 19.4482 4.13784C19.4003 4.09071 19.3487 4.05101 19.2951 4.01115C19.2748 3.99592 19.2545 3.98079 19.2342 3.96555C19.1875 3.93048 19.1407 3.89558 19.0938 3.86079C19.0202 3.80608 18.9472 3.75042 18.8744 3.69466C18.7692 3.6142 18.6634 3.53464 18.5572 3.45556C18.4738 3.39337 18.3909 3.33045 18.3082 3.26724C18.203 3.1868 18.0972 3.10722 17.991 3.02815C17.9077 2.96599 17.8249 2.90301 17.7423 2.83983C17.6371 2.7594 17.5312 2.6798 17.4251 2.60074C17.3417 2.53856 17.2588 2.47562 17.1761 2.41242C17.0822 2.3406 16.9878 2.26932 16.893 2.19871C16.7494 2.09171 16.607 1.98293 16.4647 1.87409C16.3111 1.75662 16.1571 1.63954 16.002 1.52407C15.9187 1.46191 15.8359 1.39894 15.7533 1.33576C15.6481 1.25531 15.5423 1.17574 15.4361 1.09666C15.3527 1.03447 15.2698 0.971556 15.1871 0.908346C15.0819 0.827902 14.9761 0.748325 14.87 0.669252C14.7866 0.607067 14.7036 0.544132 14.621 0.480934C14.1579 0.127447 14.1578 0.127349 14.0472 0.0692981C14.0371 0.0640154 14.027 0.058719 14.0167 0.0532763ZM18.3077 13.7415C18.3084 13.9122 18.3095 14.0828 18.3111 14.2535C18.3124 14.4022 18.3134 14.5511 18.3137 14.6999C18.3139 14.7786 18.3141 14.8573 18.3151 14.936C18.3161 15.0102 18.3165 15.0844 18.3163 15.1586C18.3163 15.1858 18.3165 15.213 18.317 15.2402C18.324 15.3846 18.3239 15.3846 18.2708 15.5126C18.2359 15.541 18.2024 15.5624 18.163 15.5833C18.1446 15.5964 18.1263 15.6098 18.1084 15.6235C18.0903 15.6362 18.0721 15.6488 18.054 15.6614C18.0327 15.6764 18.0113 15.6915 17.9901 15.7065C17.9786 15.7146 17.967 15.7229 17.9552 15.7312C17.8853 15.7808 17.8157 15.8309 17.7461 15.8811C17.7311 15.8919 17.716 15.9029 17.7005 15.9141C17.5922 15.9922 17.4839 16.0704 17.3757 16.1487C17.2351 16.2507 17.0941 16.3522 16.9531 16.4537C16.8796 16.5066 16.8058 16.5595 16.7323 16.6124C16.703 16.6335 16.6738 16.6547 16.6445 16.6757C15.413 17.5622 15.4128 17.5623 15.3689 17.5939C15.3396 17.615 15.3102 17.6359 15.2809 17.657C15.2073 17.7099 15.1337 17.763 15.0603 17.816C14.9098 17.9246 14.759 18.0327 14.6076 18.1399C14.5858 18.1554 14.5858 18.1556 14.5635 18.1714C14.5502 18.1808 14.5369 18.1901 14.5232 18.1998C14.5114 18.2081 14.4996 18.2166 14.4874 18.2252C14.4636 18.2443 14.4635 18.2443 14.445 18.2429C14.4389 17.8767 14.4344 17.5105 14.4316 17.1443C14.4303 16.9743 14.4284 16.8043 14.4254 16.6343C14.4228 16.4861 14.4212 16.3377 14.4207 16.1894C14.4203 16.1109 14.4194 16.0325 14.4175 15.954C14.3912 15.6224 14.3912 15.6223 14.5015 15.3299C14.5546 15.2852 14.6099 15.2563 14.6739 15.2321C14.7195 15.2134 14.7562 15.1846 14.7951 15.1542C14.8218 15.1349 14.8487 15.1157 14.8754 15.0965C14.9056 15.0748 14.9357 15.0531 14.9658 15.0314C14.9809 15.0206 14.9961 15.0098 15.0116 14.9986C15.0854 14.9456 15.1592 14.8925 15.2329 14.8394C15.2622 14.8183 15.2916 14.7971 15.3209 14.7761C15.9661 14.3117 16.6113 13.8473 17.2565 13.3829C17.271 13.3725 17.2854 13.3621 17.3004 13.3513C17.3296 13.3303 17.3591 13.3091 17.3884 13.288C17.4622 13.2348 17.536 13.1816 17.6099 13.1285C17.6396 13.1071 17.6694 13.0858 17.6991 13.0644C17.7208 13.0488 17.7209 13.0488 17.743 13.0329C17.8148 12.9812 17.8866 12.9294 17.9581 12.8773C17.9787 12.8624 17.9786 12.8623 17.9996 12.847C18.0253 12.8284 18.051 12.8096 18.0766 12.7908C18.0939 12.7782 18.094 12.7783 18.1117 12.7654C18.1216 12.7582 18.1315 12.7507 18.1417 12.7433C18.1746 12.7204 18.208 12.6986 18.2417 12.677C18.2527 12.6698 18.2637 12.6626 18.2751 12.6553C18.2834 12.6499 18.2919 12.6446 18.3006 12.639C18.3038 13.0065 18.3062 13.374 18.3077 13.7415ZM14.445 2.07991C14.4948 2.07991 14.5216 2.11472 14.5599 2.14621C14.6412 2.21212 14.7236 2.27589 14.8075 2.33823C14.8191 2.34688 14.8308 2.35544 14.8428 2.36436C14.8666 2.38208 14.8905 2.39989 14.9143 2.4176C15.116 2.5673 15.3164 2.71874 15.516 2.87138C15.6696 2.98885 15.8236 3.10593 15.9787 3.2214C16.062 3.28356 16.1448 3.34653 16.2274 3.40971C16.3326 3.49015 16.4384 3.56974 16.5446 3.64881C16.628 3.711 16.7109 3.77392 16.7936 3.83713C16.8988 3.91758 17.0046 3.99714 17.1108 4.07622C17.1942 4.13841 17.2771 4.20133 17.3597 4.26454C17.4537 4.33636 17.548 4.40765 17.6428 4.47824C17.8377 4.62159 17.8377 4.62169 18.0277 4.77181C18.0711 4.80276 18.0712 4.80267 18.1277 4.82653C18.2023 4.86178 18.2581 4.90292 18.3006 4.97689C18.3447 5.14443 18.3333 5.32747 18.3318 5.49969C18.3314 5.57255 18.3325 5.64547 18.3332 5.71833C18.3346 5.86089 18.3346 6.00342 18.3342 6.14599C18.3339 6.26191 18.334 6.37786 18.3344 6.49378C18.3345 6.51028 18.3344 6.52682 18.3344 6.54382C18.3346 6.57738 18.3348 6.61107 18.3349 6.64463C18.336 6.95916 18.3356 7.27367 18.3347 7.58819C18.3339 7.87568 18.3348 8.16317 18.3366 8.45066C18.3384 8.74615 18.3392 9.04177 18.3387 9.33728C18.3385 9.50301 18.3386 9.66871 18.3399 9.83444C18.341 9.97559 18.3412 10.1168 18.3399 10.2579C18.3393 10.3299 18.339 10.4019 18.3402 10.4738C18.355 10.7519 18.355 10.752 18.2703 11.0053C18.1995 11.0771 18.1205 11.1241 18.0304 11.1655C17.9821 11.1885 17.9426 11.2177 17.9002 11.2505C17.874 11.2694 17.8477 11.2884 17.8215 11.3072C17.7917 11.3286 17.762 11.3499 17.7323 11.3713C17.7175 11.3819 17.7027 11.3926 17.6874 11.4036C17.5993 11.467 17.5111 11.5304 17.4229 11.5939C17.3491 11.6471 17.275 11.7002 17.2012 11.7534C17.0501 11.862 16.8992 11.971 16.7485 12.0802C16.6078 12.1821 16.4667 12.2837 16.3257 12.3851C16.2521 12.438 16.1786 12.4909 16.1051 12.5438C16.0757 12.565 16.0464 12.5861 16.0171 12.6072C15.1375 13.2403 15.1375 13.2405 15.0934 13.2722C15.0643 13.2932 15.0352 13.3141 15.0061 13.3351C14.9293 13.3903 14.8524 13.4455 14.7758 13.501C14.7598 13.5125 14.7438 13.5241 14.7273 13.536C14.6967 13.5581 14.6661 13.5801 14.6355 13.6023C14.6217 13.6122 14.6078 13.6223 14.5936 13.6326C14.5755 13.6456 14.5755 13.6457 14.5571 13.659C14.5206 13.6843 14.4827 13.7078 14.445 13.7312V2.07991Z" fill="#D4A373"/>
<path d="M23.8117 7.68728C23.8107 7.68612 23.8097 7.68499 23.8086 7.68383C23.8078 7.68309 23.807 7.68235 23.8062 7.68161C23.8081 7.68353 23.8099 7.68538 23.8117 7.68728Z" fill="#D4A373"/>
</svg>
