<svg width="150" height="35" viewBox="0 0 150 35" fill="none" xmlns="http://www.w3.org/2000/svg">
<path d="M19.7492 0.0197673C19.6096 0.00178153 19.4667 0.0157183 19.3291 0.0740123C19.3144 0.0815862 19.3001 0.0891861 19.2859 0.0965378C19.1291 0.177404 19.1288 0.177747 18.4722 0.670248C18.355 0.758276 18.2373 0.846122 18.1191 0.932739C17.9686 1.04284 17.8186 1.15355 17.6695 1.26556C17.5523 1.35364 17.4346 1.4414 17.3164 1.52806C17.1658 1.63824 17.0156 1.74925 16.8664 1.86134C16.7493 1.94933 16.6318 2.03727 16.5137 2.12383C16.294 2.28462 16.0757 2.44754 15.858 2.61112C15.6562 2.76275 15.4541 2.91439 15.2504 3.06347C15.1161 3.16182 14.9823 3.2613 14.8491 3.36135C14.7319 3.44941 14.6142 3.53721 14.496 3.62384C14.3455 3.734 14.1951 3.84506 14.046 3.95713C13.9289 4.04511 13.8114 4.1326 13.6933 4.21916C13.5428 4.32932 13.3929 4.44038 13.2437 4.55245C13.1265 4.64052 13.0089 4.72829 12.8906 4.81494C12.7401 4.92512 12.5898 5.03612 12.4406 5.14822C12.3374 5.22585 12.234 5.30329 12.1297 5.37945C12.0632 5.42793 11.9967 5.47678 11.9304 5.52564C11.9018 5.54685 11.8728 5.56788 11.8441 5.58908C11.7681 5.64459 11.6947 5.69996 11.6269 5.7656C11.4348 5.98491 11.3578 6.21432 11.3551 6.50665C11.3553 6.55143 11.3557 6.59655 11.3555 6.64134C11.355 6.72586 11.3549 6.81058 11.3551 6.8951C11.3553 6.98726 11.3549 7.07968 11.3546 7.17184C11.354 7.33174 11.3537 7.49187 11.3537 7.65177C11.3537 7.88482 11.3533 8.11793 11.3528 8.35098C11.3519 8.72892 11.3517 9.10713 11.3514 9.48507C11.3511 9.85325 11.3507 10.2216 11.35 10.5897C11.3499 10.6245 11.3501 10.6247 11.35 10.6587C11.3498 10.773 11.3493 10.8878 11.3491 11.0021C11.3473 11.9535 11.3457 12.905 11.345 13.8564C11.3449 13.8729 11.345 13.8891 11.345 13.9051C11.3034 13.8753 11.2616 13.8453 11.2201 13.8155C11.2026 13.8029 11.1856 13.7904 11.1686 13.7782C11.0433 13.6883 10.9176 13.5983 10.7916 13.5093C10.7517 13.4811 10.7117 13.4529 10.6718 13.4247C10.6497 13.4091 10.628 13.3939 10.6066 13.3788C10.501 13.3042 10.3952 13.2295 10.2897 13.1549C10.2483 13.1256 10.2067 13.0959 10.1653 13.0666C10.1442 13.0517 10.1233 13.0375 10.1028 13.0229C9.52068 12.6112 8.93864 12.199 8.3565 11.7873C8.31496 11.7579 8.27314 11.7284 8.2316 11.699C8.12739 11.6253 8.02312 11.5516 7.91888 11.4779C7.71674 11.335 7.51447 11.192 7.31274 11.0485C7.28533 11.029 7.28503 11.0291 7.25809 11.0099C7.17148 10.9484 7.08478 10.887 6.99911 10.8242C6.74814 10.6391 6.50271 10.4412 6.18173 10.4196C5.95416 10.4175 5.75808 10.4771 5.58018 10.5989C5.59254 10.6052 5.60511 10.6118 5.61784 10.6182C5.53194 10.7056 5.44551 10.7931 5.35701 10.883C5.35702 10.8359 5.37091 10.8001 5.39237 10.7681C5.20929 11.003 5.17063 11.2542 5.17241 11.5574C5.17266 11.5964 5.17293 11.6357 5.17287 11.6746C5.17251 11.7832 5.17206 11.892 5.17241 12.0006C5.1728 12.1199 5.173 12.2394 5.17287 12.3587C5.17263 12.5681 5.17255 12.7777 5.17287 12.9871C5.17342 13.3154 5.17387 13.6439 5.17379 13.9722C5.17366 14.5014 5.17373 15.0309 5.17425 15.5601C5.17477 16.0853 5.17507 16.6107 5.17517 17.1359V17.6324C5.17522 18.0026 5.17553 18.3733 5.17563 18.7435C5.17563 18.7608 5.17562 18.7777 5.17563 18.7945C5.17585 19.6146 5.17643 20.4347 5.17701 21.2549C5.1772 21.5396 5.17727 21.8247 5.17746 22.1094C5.17748 22.1276 5.17745 22.1456 5.17746 22.1632C5.17802 22.9846 5.17858 23.8059 5.17884 24.6272V25.8482C5.17906 26.5522 5.17997 27.2565 5.18022 27.9606C5.18023 27.994 5.18021 28.0277 5.18022 28.0612C5.18084 29.7814 5.18144 31.5017 5.18252 33.2219C5.18253 33.2486 5.1825 33.2746 5.18252 33.3005C5.18278 33.7178 5.18273 33.7181 5.18343 34.7941H7.0712C7.07858 27.4744 7.08562 20.3696 7.09278 13.2652C7.2943 13.4054 7.49623 13.545 7.69663 13.6868C7.71583 13.7004 7.73447 13.714 7.75311 13.7272C7.90915 13.8377 8.06529 13.9482 8.22103 14.0591C8.41699 14.1987 8.61326 14.3381 8.80973 14.477C8.91449 14.551 9.01954 14.6249 9.12428 14.699C9.16579 14.7284 9.20721 14.7579 9.24872 14.7873C9.26993 14.8023 9.29059 14.8169 9.31117 14.8314C9.53987 14.9932 9.76852 15.1551 9.99721 15.3169L10.1846 15.4493C10.2889 15.5231 10.3934 15.5969 10.4977 15.6708C10.5299 15.6937 10.5304 15.6935 10.562 15.7159C10.6044 15.7459 10.6469 15.776 10.6892 15.806C10.7081 15.8194 10.7264 15.8325 10.7448 15.8455C10.7639 15.8591 10.7822 15.8728 10.8008 15.886C10.8597 15.9304 10.9149 15.9699 10.9817 16.0009C11.1025 16.0543 11.2089 16.1146 11.3046 16.2078C11.4178 16.5332 11.4176 16.5335 11.3973 16.8932C11.3956 16.9869 11.3957 17.0808 11.3964 17.1745C11.3977 17.339 11.3977 17.5034 11.3964 17.6678C11.3942 17.9141 11.394 18.1607 11.3946 18.407C11.3956 18.8214 11.3951 19.2361 11.3932 19.6505C11.3912 20.0628 11.3895 20.4752 11.3895 20.8876V21.3551C11.3897 22.2765 11.3886 23.1983 11.3858 24.1197C11.3831 25.0163 11.381 25.9129 11.3803 26.8095C11.3803 26.8379 11.3803 26.8659 11.3803 26.8936C11.3801 27.1715 11.3796 27.4496 11.3794 27.7275C11.379 28.2942 11.3786 28.8612 11.378 29.4279C11.378 29.4675 11.3781 29.4677 11.378 29.5065C11.3767 30.8574 11.3737 32.2085 11.3702 33.5593C11.3702 33.5803 11.3703 33.601 11.3702 33.6213C11.3698 33.7784 11.3693 33.9355 11.3688 34.0925C11.3682 34.331 11.3672 34.5626 11.3665 34.7941H13.2543C13.2617 31.1042 13.2687 27.5227 13.2759 23.9414C13.3611 23.9991 13.4467 24.0568 13.5312 24.1156C13.5484 24.1278 13.5655 24.1396 13.5822 24.1515C13.602 24.1655 13.6213 24.1792 13.6405 24.1928C13.6828 24.2228 13.7254 24.253 13.7677 24.2829C13.7905 24.2991 13.8126 24.315 13.8347 24.3307C13.9424 24.4071 14.0503 24.4835 14.158 24.5597C14.1993 24.5888 14.2408 24.6178 14.282 24.647C14.3444 24.6911 14.3451 24.6914 15.5921 25.5733C15.6336 25.6027 15.6754 25.6322 15.717 25.6616C15.8212 25.7353 15.9255 25.8095 16.0297 25.8832C16.2296 26.0244 16.4296 26.1659 16.629 26.3079C16.8425 26.46 17.0568 26.6117 17.2709 26.763C17.3347 26.8081 17.3987 26.8535 17.4624 26.8986C17.6777 27.0512 17.8929 27.2038 18.1099 27.3537C18.1394 27.374 18.1691 27.3941 18.1985 27.4144C18.2486 27.4522 18.2981 27.4871 18.3542 27.5151C18.4687 27.5709 18.5706 27.6337 18.6614 27.7247C18.7679 28.0248 18.7678 28.025 18.7482 28.3564C18.7463 28.4409 18.7463 28.5255 18.7468 28.6101C18.7477 28.7571 18.7475 28.9045 18.7459 29.0514C18.7434 29.2655 18.7425 29.4796 18.7427 29.6936C18.7429 30.0407 18.7416 30.3878 18.739 30.7349C18.7364 31.073 18.7346 31.4113 18.7339 31.7494C18.7339 31.7709 18.734 31.792 18.7339 31.8129C18.7337 31.9178 18.7336 32.0229 18.7335 32.1278C18.7324 32.8033 18.7303 33.4791 18.7261 34.1546C18.7247 34.3719 18.7234 34.5831 18.722 34.7941H19.7492V34.8345H1.88088C0.842098 34.8345 0 33.9915 0 32.9516V1.88295C5.15009e-07 0.843024 0.842098 1.89547e-08 1.88088 0H19.7492V0.0197673Z" fill="#D4A373"/>
<path d="M13.2906 17.6338C13.3066 17.6439 13.3223 17.6538 13.3379 17.6637C13.3856 17.6939 13.4331 17.7242 13.4798 17.7561C13.4943 17.7665 13.5084 17.7772 13.5225 17.7873C13.5473 17.8051 13.5476 17.8052 13.5721 17.8227C13.6084 17.8488 13.645 17.8749 13.6814 17.9009C13.711 17.922 13.711 17.9223 13.7401 17.9432C13.8415 18.0157 13.9433 18.0877 14.0451 18.1597C14.0764 18.1818 14.0767 18.1821 14.1075 18.2038C14.1496 18.2335 14.1917 18.2632 14.2338 18.293C14.3385 18.367 14.4432 18.441 14.5479 18.515L14.7352 18.6474C15.65 19.2944 16.5651 19.9417 17.4799 20.5887C17.5213 20.6181 17.5628 20.6477 17.6043 20.677C17.7089 20.751 17.8138 20.8247 17.9184 20.8986C17.9404 20.9141 17.9618 20.9295 17.9831 20.9446C18.0258 20.9747 18.0686 21.005 18.1113 21.0351C18.1492 21.0619 18.1877 21.0888 18.2256 21.1156C18.2807 21.1579 18.3327 21.1981 18.3973 21.2241C18.4881 21.2578 18.5664 21.2983 18.6416 21.3606C18.798 21.7679 18.7979 21.768 18.7606 22.2299C18.7579 22.3392 18.7569 22.4488 18.7564 22.5581C18.7556 22.7647 18.7532 22.9713 18.7495 23.1778C18.7453 23.4146 18.7427 23.6516 18.7408 23.8885C18.7368 24.3988 18.7306 24.9091 18.722 25.4193C18.6958 25.4213 18.6956 25.4212 18.6618 25.3945C18.6446 25.3825 18.6276 25.3707 18.6109 25.3591C18.5915 25.3457 18.5727 25.3326 18.5539 25.3196C18.5223 25.2975 18.522 25.2975 18.491 25.2759C18.2764 25.1266 18.0628 24.9757 17.8495 24.8245C17.7453 24.7506 17.6406 24.6766 17.5363 24.6029C17.4949 24.5736 17.4533 24.5444 17.4119 24.5151C17.3495 24.471 17.349 24.4708 15.6027 23.2357C15.5612 23.2064 15.5197 23.1768 15.4782 23.1475C15.3739 23.0737 15.2693 23.0001 15.165 22.9263C14.9651 22.785 14.7652 22.6431 14.5658 22.5011C14.4125 22.3919 14.2588 22.283 14.1052 22.1743C14.0833 22.1588 14.0622 22.1433 14.0409 22.1283C13.9423 22.0585 13.8434 21.9887 13.7443 21.9196C13.7275 21.908 13.7109 21.8964 13.6947 21.8851C13.6646 21.8642 13.6344 21.843 13.6042 21.8221C13.5785 21.8045 13.5527 21.787 13.5271 21.7693C13.5016 21.7503 13.4755 21.7318 13.4495 21.7136C13.3936 21.6845 13.3459 21.6545 13.2966 21.6148C13.2213 21.4367 13.2215 21.4365 13.2313 21.2356C13.2321 21.1977 13.2322 21.1594 13.2323 21.1215C13.232 21.0183 13.2323 20.9149 13.2336 20.8117C13.2351 20.702 13.2357 20.5922 13.2359 20.4826C13.2364 20.2753 13.2377 20.0678 13.2396 19.8606C13.2418 19.6228 13.2432 19.3849 13.2442 19.1471C13.2463 18.635 13.2497 18.1228 13.2543 17.6108C13.2666 17.6185 13.2787 17.6262 13.2906 17.6338Z" fill="#D4A373"/>
<path d="M18.722 19.1329C18.6686 19.1003 18.6148 19.0675 18.5631 19.0322C18.537 19.0137 18.5367 19.0135 18.5112 18.9954C18.491 18.9811 18.4711 18.967 18.4515 18.9531C18.4082 18.9223 18.3649 18.8915 18.3216 18.8607C18.2982 18.8442 18.2753 18.8281 18.2527 18.812C18.144 18.7348 18.0351 18.6577 17.9262 18.5808C17.8849 18.5516 17.8435 18.5226 17.8022 18.4934C17.7398 18.4493 17.7398 18.4488 16.4926 17.5667C16.451 17.5372 16.4093 17.5078 16.3677 17.4784C16.2635 17.4047 16.1592 17.331 16.055 17.2573C15.855 17.116 15.6547 16.9745 15.4552 16.8325C15.2416 16.6803 15.0275 16.5284 14.8133 16.3769C14.7086 16.303 14.6038 16.2289 14.4992 16.1549C14.3742 16.0665 14.249 15.978 14.124 15.8897C14.1024 15.8744 14.0812 15.8594 14.0602 15.8446C14.0181 15.8149 13.976 15.7852 13.9339 15.7554C13.8968 15.7292 13.8595 15.7026 13.8223 15.6764C13.7621 15.6306 13.7061 15.5899 13.6377 15.5578C13.5099 15.5001 13.3979 15.4344 13.2975 15.3343C13.1774 14.9816 13.1772 14.9815 13.1983 14.5942C13.2 14.4939 13.1997 14.3934 13.1987 14.2931C13.1969 14.0965 13.1971 13.8999 13.1987 13.7033C13.2006 13.4724 13.2005 13.2414 13.2001 13.0105C13.1994 12.5988 13.2007 12.1866 13.2033 11.7748C13.2059 11.3743 13.2072 10.9737 13.2061 10.5732C13.2048 10.1349 13.2041 9.69667 13.2056 9.25843C13.2058 9.21175 13.2064 9.1649 13.2066 9.11822V8.56382C13.206 8.36517 13.2061 8.16622 13.2079 7.96758C13.209 7.86618 13.2107 7.76468 13.2102 7.66326C13.2082 7.42329 13.1917 7.16808 13.2543 6.93463C13.3145 6.83157 13.3937 6.77412 13.4995 6.72501C13.5796 6.69177 13.58 6.69224 13.6414 6.64915C13.9108 6.44003 13.9108 6.4396 14.1869 6.24002C14.3214 6.14165 14.4555 6.0422 14.5887 5.94213C14.7059 5.85408 14.8236 5.76627 14.9419 5.67964C15.0924 5.5695 15.2423 5.45841 15.3914 5.34635C15.5086 5.25831 15.6263 5.17094 15.7445 5.08432C15.8951 4.97418 16.045 4.86309 16.1941 4.75104C16.3113 4.663 16.429 4.57516 16.5472 4.48855C16.767 4.32771 16.9852 4.16444 17.203 4.0008C17.486 3.78815 17.7702 3.57727 18.0562 3.36871C18.09 3.34403 18.1238 3.31894 18.1576 3.29424C18.1746 3.28183 18.1912 3.26997 18.2077 3.25792C18.3266 3.17106 18.4438 3.08221 18.559 2.99037C18.6133 2.94651 18.6514 2.89797 18.722 2.89797V19.1329Z" fill="#D4A373"/>
<path fill-rule="evenodd" clip-rule="evenodd" d="M19.8762 0.0742341C19.5609 -0.0593305 19.2188 0.0399389 18.9489 0.222606C18.9019 0.256367 18.8552 0.290539 18.8086 0.324955V34.7939H20.4836C20.4822 34.5829 20.481 34.372 20.4795 34.1547C20.4754 33.4791 20.4731 32.8032 20.4721 32.1276C20.4719 32.0227 20.4716 31.9176 20.4714 31.8127C20.4714 31.7918 20.4715 31.771 20.4714 31.7495C20.4708 31.4113 20.4689 31.0731 20.4664 30.7349C20.4638 30.3878 20.4627 30.0407 20.463 29.6936C20.4631 29.4795 20.4621 29.2654 20.4596 29.0513C20.458 28.9044 20.4576 28.7573 20.4586 28.6103C20.4591 28.5257 20.4591 28.4412 20.4572 28.3565C20.4376 28.025 20.4375 28.0248 20.5441 27.7246C20.635 27.6335 20.7367 27.5709 20.8512 27.5151C20.9073 27.4871 20.9566 27.4522 21.0068 27.4144C21.0363 27.3941 21.0658 27.3739 21.0954 27.3536C21.3124 27.2037 21.5277 27.0511 21.743 26.8986C21.8068 26.8534 21.8709 26.808 21.9347 26.7629C22.1489 26.6116 22.3627 26.46 22.5763 26.3078C22.7757 26.1658 22.9756 26.0246 23.1755 25.8833C23.2799 25.8096 23.3844 25.7356 23.4887 25.6618C23.5302 25.6324 23.5719 25.6029 23.6135 25.5735C24.8605 24.6916 24.8609 24.6914 24.9233 24.6472C24.9646 24.618 25.0061 24.5889 25.0474 24.5597C25.1552 24.4834 25.263 24.4069 25.3707 24.3306C25.3929 24.3148 25.4151 24.2991 25.438 24.2828C25.4803 24.2529 25.5225 24.2228 25.5648 24.1928C25.5841 24.1792 25.6035 24.1657 25.6233 24.1516C25.64 24.1398 25.6568 24.1278 25.674 24.1156C25.7586 24.0567 25.8441 23.9992 25.9294 23.9414C25.9365 27.5227 25.9436 31.104 25.951 34.7939H27.8387C27.8381 34.5624 27.8374 34.331 27.8367 34.0925C27.8363 33.9355 27.8358 33.7784 27.8354 33.6213C27.8353 33.6009 27.8354 33.5805 27.8354 33.5595C27.8319 32.2086 27.8286 30.8576 27.8272 29.5067C27.8272 29.4677 27.8273 29.4675 27.8272 29.4278C27.8267 28.861 27.8263 28.2941 27.8259 27.7273C27.8257 27.4494 27.8254 27.1714 27.8252 26.8934C27.8252 26.8658 27.8252 26.8381 27.8252 26.8096C27.8245 25.913 27.8225 25.0163 27.8198 24.1197C27.817 23.1983 27.8155 22.2766 27.8157 21.3552V20.8875C27.8157 20.4751 27.8143 20.0627 27.8124 19.6503C27.8104 19.2359 27.8099 18.8215 27.811 18.407C27.8116 18.1607 27.8112 17.9143 27.809 17.6679C27.8076 17.5034 27.8076 17.3389 27.809 17.1744C27.8097 17.0806 27.8101 16.9869 27.8083 16.8931C27.788 16.5334 27.7878 16.5333 27.901 16.2079C27.9967 16.1147 28.1031 16.0543 28.2239 16.0008C28.2908 15.9698 28.3456 15.9302 28.4045 15.8858C28.4231 15.8726 28.4415 15.8591 28.4607 15.8456C28.4791 15.8325 28.4975 15.8195 28.5165 15.8061C28.5588 15.7761 28.6013 15.7461 28.6436 15.7161C28.6753 15.6936 28.6755 15.6937 28.7079 15.6708C28.8122 15.5968 28.9166 15.5231 29.021 15.4492C29.0626 15.4198 29.1042 15.3904 29.1458 15.361C29.1664 15.3464 29.1869 15.3316 29.208 15.3167C29.4368 15.1549 29.6655 14.9931 29.8942 14.8314C29.9148 14.8168 29.9356 14.8024 29.9568 14.7874C29.9983 14.758 30.0397 14.7285 30.0812 14.6991C30.186 14.625 30.291 14.551 30.3957 14.4769C30.5922 14.3381 30.7886 14.1989 30.9845 14.0593C31.1403 13.9484 31.2962 13.8377 31.4522 13.7272C31.4709 13.7139 31.4898 13.7006 31.509 13.687C31.7094 13.5452 31.9112 13.4054 32.1127 13.2652C32.1199 20.3696 32.127 27.4742 32.1343 34.7939H34.0221C34.0228 33.7179 34.0225 33.7179 34.0228 33.3005C34.0228 33.2746 34.0231 33.2486 34.0231 33.2219C34.0242 31.5017 34.0248 29.7813 34.0255 28.0612C34.0255 28.0277 34.0254 27.994 34.0255 27.9605C34.0257 27.2565 34.0263 26.5523 34.0265 25.8483C34.0266 25.4946 34.0267 25.141 34.0268 24.7874C34.0268 24.734 34.0268 24.6807 34.0268 24.6273C34.0271 23.8059 34.0273 22.9845 34.0278 22.163C34.0278 22.1454 34.0278 22.1276 34.0278 22.1095C34.028 21.8247 34.0283 21.5397 34.0285 21.255C34.0291 20.4348 34.0296 19.6146 34.0299 18.7945C34.0299 18.7776 34.0299 18.7607 34.0299 18.7433C34.03 18.373 34.0301 18.0028 34.0302 17.6326V17.1359C34.0303 16.6106 34.0307 16.0851 34.0312 15.5598C34.0317 15.0307 34.032 14.5015 34.0319 13.9724C34.0318 13.644 34.032 13.3154 34.0326 12.987C34.0329 12.7776 34.0328 12.5682 34.0326 12.3588C34.0324 12.2395 34.0325 12.12 34.0329 12.0006C34.0332 11.892 34.0329 11.7833 34.0326 11.6747C34.0325 11.6357 34.0327 11.5966 34.0329 11.5576C34.0347 11.2543 33.9963 11.003 33.8131 10.768C33.8346 10.8 33.8482 10.8359 33.8483 10.883C33.7598 10.7931 33.6737 10.7056 33.5878 10.6182C33.6006 10.6118 33.613 10.6053 33.6254 10.599C33.4475 10.4771 33.2514 10.4176 33.0238 10.4197C32.7028 10.4413 32.4574 10.6388 32.2064 10.824C32.1207 10.8868 32.034 10.9483 31.9473 11.0098C31.9203 11.029 31.9201 11.029 31.8925 11.0486C31.6908 11.192 31.4887 11.335 31.2865 11.4779C31.1822 11.5516 31.078 11.6253 30.9737 11.6991C30.9321 11.7285 30.8905 11.7579 30.8489 11.7873C30.2668 12.1991 29.6847 12.611 29.1025 13.0227C29.082 13.0373 29.0612 13.0517 29.04 13.0667C28.9985 13.096 28.957 13.1256 28.9155 13.155C28.81 13.2296 28.7046 13.3043 28.599 13.3789C28.5775 13.3941 28.5558 13.409 28.5337 13.4246C28.4937 13.4528 28.4537 13.4812 28.4137 13.5094C28.2877 13.5984 28.1622 13.6883 28.0369 13.7783C28.0199 13.7906 28.0027 13.8028 27.9852 13.8154C27.9436 13.8453 27.902 13.8752 27.8604 13.9051C27.8604 13.889 27.8604 13.8728 27.8604 13.8563C27.8596 12.9048 27.8581 11.9533 27.8563 11.0019C27.8561 10.8876 27.8559 10.7731 27.8557 10.6588C27.8556 10.6247 27.8557 10.6245 27.8557 10.5897C27.855 10.2215 27.8546 9.85336 27.8543 9.48518C27.854 9.1072 27.8535 8.72907 27.8526 8.3511C27.8521 8.11801 27.8519 7.88492 27.8519 7.65183C27.8519 7.49186 27.8515 7.33165 27.8509 7.17168C27.8506 7.07952 27.8504 6.98736 27.8506 6.8952C27.8508 6.81065 27.8504 6.72594 27.8499 6.64139C27.8497 6.59659 27.85 6.55156 27.8502 6.50676C27.8475 6.21433 27.7706 5.98495 27.5783 5.76559C27.5105 5.69991 27.4373 5.64459 27.3612 5.58905C27.3325 5.56783 27.3037 5.54675 27.275 5.52551C27.2088 5.47665 27.1423 5.42802 27.0758 5.37955C26.9714 5.30331 26.868 5.22576 26.7647 5.14806C26.6155 5.03596 26.4655 4.92509 26.3149 4.81491C26.1966 4.72826 26.0791 4.64059 25.9618 4.55251C25.8126 4.44042 25.6626 4.32954 25.512 4.21936C25.3938 4.13275 25.2765 4.045 25.1593 3.95697C25.0102 3.8449 24.8601 3.73397 24.7095 3.62382C24.5913 3.53718 24.4737 3.44948 24.3565 3.36142C24.2233 3.26134 24.0895 3.16202 23.9551 3.06365C23.7514 2.91455 23.5495 2.76297 23.3477 2.61132C23.1298 2.44763 22.9114 2.2845 22.6916 2.12362C22.5734 2.037 22.4561 1.94926 22.3389 1.86122C22.1897 1.74913 22.0397 1.63825 21.8891 1.52807C21.7708 1.44142 21.6533 1.35375 21.536 1.26567C21.3868 1.15358 21.2368 1.0427 21.0862 0.932522C20.968 0.845876 20.8504 0.758183 20.7332 0.670124C20.0765 0.177582 20.0763 0.177445 19.9195 0.0965585C19.9053 0.0891978 19.8909 0.0818179 19.8762 0.0742341ZM25.9612 19.1472C25.9622 19.385 25.9637 19.6228 25.9659 19.8605C25.9678 20.0678 25.9692 20.2753 25.9696 20.4825C25.9699 20.5922 25.9702 20.7019 25.9716 20.8116C25.973 20.9149 25.9736 21.0184 25.9733 21.1217C25.9734 21.1595 25.9736 21.1975 25.9743 21.2354C25.9842 21.4365 25.9841 21.4366 25.9087 21.6149C25.8594 21.6546 25.8117 21.6843 25.7559 21.7135C25.7298 21.7317 25.7039 21.7504 25.6784 21.7694C25.6528 21.7872 25.627 21.8047 25.6013 21.8223C25.5711 21.8433 25.5409 21.8643 25.5107 21.8852C25.4945 21.8965 25.4781 21.9079 25.4613 21.9195C25.3621 21.9887 25.2634 22.0585 25.1647 22.1284C25.1434 22.1434 25.1221 22.1588 25.1001 22.1744C24.9465 22.2832 24.7929 22.3921 24.6395 22.5013C24.4401 22.6434 24.2402 22.7849 24.0403 22.9262C23.936 22.9999 23.8314 23.0736 23.7271 23.1474C23.6856 23.1767 23.6442 23.2063 23.6027 23.2356C21.8563 24.4708 21.8561 24.4709 21.7937 24.515C21.7522 24.5444 21.7105 24.5736 21.6689 24.6029C21.5647 24.6767 21.4603 24.7506 21.3561 24.8245C21.1427 24.9757 20.9289 25.1264 20.7142 25.2758C20.6833 25.2974 20.6833 25.2977 20.6517 25.3197C20.6328 25.3328 20.6139 25.3457 20.5945 25.3592C20.5778 25.3708 20.561 25.3826 20.5438 25.3946C20.51 25.4213 20.5098 25.4213 20.4836 25.4193C20.475 24.9091 20.4687 24.3988 20.4647 23.8885C20.4628 23.6517 20.4601 23.4148 20.4559 23.1779C20.4522 22.9714 20.4499 22.7646 20.4491 22.558C20.4486 22.4487 20.4474 22.3393 20.4447 22.23C20.4073 21.7679 20.4073 21.7679 20.5638 21.3604C20.639 21.2981 20.7174 21.2578 20.8083 21.224C20.8729 21.1981 20.9249 21.1579 20.9801 21.1155C21.018 21.0887 21.0561 21.0619 21.094 21.0351C21.1368 21.005 21.1795 20.9747 21.2222 20.9445C21.2436 20.9294 21.2651 20.9144 21.2871 20.8988C21.3918 20.8249 21.4964 20.7509 21.601 20.6769C21.6425 20.6475 21.6842 20.618 21.7258 20.5887C22.6406 19.9416 23.5556 19.2945 24.4704 18.6475C24.491 18.6329 24.5115 18.6185 24.5327 18.6035C24.5742 18.5741 24.6159 18.5446 24.6575 18.5152C24.7622 18.4412 24.8669 18.367 24.9716 18.293C25.0138 18.2632 25.056 18.2335 25.0981 18.2037C25.1289 18.182 25.129 18.1819 25.1603 18.1598C25.2622 18.0878 25.3639 18.0156 25.4654 17.943C25.4946 17.9222 25.4945 17.922 25.5242 17.9008C25.5606 17.8748 25.5971 17.8486 25.6335 17.8225C25.658 17.8049 25.6581 17.805 25.6832 17.7871C25.6972 17.777 25.7113 17.7666 25.7258 17.7562C25.7724 17.7243 25.8198 17.694 25.8675 17.6638C25.8831 17.6539 25.8987 17.6438 25.9148 17.6336C25.9267 17.6261 25.9388 17.6187 25.951 17.6109C25.9556 18.123 25.959 18.6351 25.9612 19.1472ZM20.4836 2.8981C20.5542 2.8981 20.5923 2.9466 20.6466 2.99049C20.7618 3.08233 20.8788 3.17118 20.9976 3.25804C21.0141 3.2701 21.0307 3.28202 21.0477 3.29445C21.0815 3.31915 21.1153 3.34396 21.1492 3.36863C21.4351 3.57723 21.7193 3.78824 22.0024 4.00093C22.2202 4.16461 22.4386 4.32774 22.6585 4.48863C22.7767 4.57524 22.894 4.66299 23.0112 4.75103C23.1604 4.86311 23.3104 4.974 23.461 5.08418C23.5792 5.17083 23.6968 5.2585 23.814 5.34658C23.9632 5.45867 24.1132 5.56954 24.2638 5.67972C24.3821 5.76638 24.4996 5.85405 24.6169 5.94212C24.7501 6.04219 24.8839 6.14153 25.0183 6.23989C25.2946 6.43963 25.2947 6.43977 25.5641 6.64895C25.6256 6.69207 25.6257 6.69195 25.7058 6.72519C25.8117 6.77431 25.8908 6.83164 25.951 6.9347C26.0136 7.16815 25.9974 7.42319 25.9953 7.66316C25.9948 7.76468 25.9962 7.86629 25.9973 7.9678C25.9992 8.16645 25.9993 8.36505 25.9987 8.56369C25.9983 8.72521 25.9984 8.88679 25.999 9.04831C25.9991 9.0713 25.9989 9.09434 25.999 9.11803C25.9992 9.16479 25.9995 9.21173 25.9997 9.2585C26.0012 9.69675 26.0006 10.135 25.9994 10.5732C25.9983 10.9738 25.9995 11.3744 26.0021 11.775C26.0047 12.1867 26.0058 12.5986 26.0051 13.0104C26.0047 13.2413 26.0049 13.4722 26.0068 13.7031C26.0084 13.8998 26.0087 14.0965 26.0068 14.2932C26.0059 14.3935 26.0055 14.4938 26.0071 14.594C26.0282 14.9815 26.0282 14.9816 25.9081 15.3345C25.8076 15.4346 25.6957 15.5001 25.5678 15.5578C25.4995 15.5899 25.4434 15.6305 25.3832 15.6763C25.3461 15.7025 25.3088 15.729 25.2716 15.7552C25.2295 15.785 25.1872 15.8148 25.1451 15.8445C25.1241 15.8594 25.1031 15.8743 25.0815 15.8895C24.9565 15.9779 24.8315 16.0663 24.7065 16.1547C24.6017 16.2288 24.4968 16.3028 24.392 16.3769C24.1778 16.5283 23.9638 16.6801 23.7501 16.8323C23.5506 16.9744 23.3505 17.1159 23.1505 17.2572C23.0462 17.3309 22.942 17.4046 22.8377 17.4783C22.7961 17.5078 22.7545 17.5372 22.7129 17.5666C21.4656 18.4488 21.4656 18.4491 21.4031 18.4933C21.3619 18.5224 21.3206 18.5517 21.2794 18.5808C21.1705 18.6578 21.0614 18.7348 20.9527 18.812C20.93 18.828 20.9073 18.8442 20.884 18.8607C20.8406 18.8915 20.7972 18.9223 20.7538 18.9531C20.7342 18.967 20.7145 18.9811 20.6943 18.9954C20.6687 19.0135 20.6686 19.0136 20.6426 19.0321C20.5908 19.0675 20.537 19.1002 20.4836 19.1328V2.8981Z" fill="#D4A373"/>
<path d="M33.7661 10.7113C33.7646 10.7097 33.7631 10.7081 33.7617 10.7065C33.7606 10.7055 33.7594 10.7044 33.7583 10.7034C33.7609 10.7061 33.7635 10.7087 33.7661 10.7113Z" fill="#D4A373"/>
<path d="M56.6633 2.50814C58.198 2.50814 59.7027 2.65879 61.1772 2.96003C62.6518 3.2613 63.9761 3.62271 65.1497 4.04447C66.3234 4.46625 67.1963 4.87287 67.7681 5.26453V11.049L67.2717 10.9584C67.0309 9.24124 66.3835 7.84035 65.3302 6.75581C64.2769 5.6713 62.9829 4.87289 61.4481 4.36075C59.9435 3.81849 58.3485 3.54753 56.6633 3.54753C54.015 3.54754 51.8029 4.21016 50.0274 5.53575C48.282 6.8312 46.973 8.62379 46.1003 10.9134C45.2577 13.203 44.8362 15.8092 44.8362 18.7315C44.8362 21.6538 45.288 24.275 46.1908 26.5948C47.1237 28.8843 48.4928 30.6919 50.2983 32.0174C52.104 33.3129 54.316 33.9606 56.9342 33.9606C59.131 33.9606 60.9216 33.6594 62.3059 33.0568C63.7203 32.4242 64.849 31.4603 65.6916 30.1648V26.6398C65.6916 25.013 65.6613 23.7176 65.6011 22.7535C65.5409 21.7593 65.3905 21.0211 65.1497 20.5391C64.909 20.027 64.533 19.6954 64.0215 19.5448C63.5099 19.3941 62.7874 19.319 61.8545 19.319L61.7641 18.8672H72.8239L72.7334 19.319C71.5899 19.3191 70.7323 19.4996 70.1605 19.861C69.6189 20.1924 69.2578 20.8402 69.0773 21.8042C68.9268 22.7683 68.8513 24.1994 68.8513 26.0974V31.7012C67.4671 32.5748 65.7066 33.3429 63.5701 34.0057C61.4635 34.6685 59.2514 35 56.9342 35C54.4966 35 52.2845 34.5785 50.2983 33.7349C48.3422 32.8913 46.657 31.7312 45.2425 30.2549C43.8583 28.7788 42.7901 27.0616 42.0378 25.1035C41.2855 23.1151 40.9091 20.991 40.9091 18.7315C40.9091 15.7189 41.5259 12.9923 42.7597 10.552C44.0236 8.11174 45.8295 6.16818 48.1768 4.72208C50.5241 3.2459 53.353 2.50815 56.6633 2.50814Z" fill="#D4A373"/>
<path d="M76.4942 26.8095C76.4942 28.4664 76.5245 29.7922 76.5847 30.7864C76.6449 31.7503 76.7954 32.4732 77.0361 32.9552C77.3069 33.4373 77.6982 33.7539 78.2098 33.9045C78.7214 34.0551 79.4286 34.1302 80.3313 34.1302L80.4213 34.6727H69.362L69.4524 34.1302C70.3852 34.1302 71.1074 34.0551 71.6189 33.9045C72.1606 33.7539 72.5519 33.4373 72.7926 32.9552C73.0334 32.4732 73.1838 31.7503 73.244 30.7864C73.3042 29.7922 73.3345 28.4664 73.3345 26.8095V9.54667C73.3345 7.91991 73.3042 6.62438 73.244 5.66033C73.1838 4.69626 73.0334 3.98795 72.7926 3.53604C72.5519 3.0842 72.1606 2.79827 71.6189 2.67777C71.1074 2.52715 70.3852 2.45161 69.4524 2.4516L69.362 1.95466C69.362 1.95466 69.6931 1.90943 70.3552 1.81905C71.0172 1.72868 71.8898 1.63819 72.9731 1.54782C74.0866 1.45744 75.2604 1.41221 76.4942 1.41221V26.8095Z" fill="#D4A373"/>
<path fill-rule="evenodd" clip-rule="evenodd" d="M89.0708 12.3297C91.2074 12.3297 92.9831 12.9169 94.3975 14.0918C95.8119 15.2366 96.5189 17.0594 96.519 19.5599V24.1243C96.519 26.2632 96.5492 27.9202 96.6094 29.0951C96.6997 30.2701 96.8804 31.0987 97.1513 31.5807C97.4221 32.0326 97.8283 32.2588 98.37 32.2588C98.7612 32.2588 99.1222 32.1982 99.4532 32.0777C99.7842 31.927 100.1 31.7764 100.401 31.6258L100.627 32.0777C100.627 32.0777 100.326 32.2736 99.7242 32.6652C99.1223 33.0267 98.2946 33.4035 97.2413 33.7951C96.2181 34.1867 95.0745 34.3826 93.8106 34.3826C93.6902 33.8102 93.585 32.9666 93.4947 31.8519C93.4044 30.7372 93.3592 29.5622 93.3592 28.3269C93.0282 29.3211 92.5768 30.3004 92.005 31.2644C91.4634 32.2285 90.726 33.0268 89.7931 33.6595C88.8602 34.2922 87.6565 34.6083 86.1819 34.6083C84.4064 34.6083 83.4322 34.1112 82.3187 33.1171C81.2052 32.1229 80.6481 30.737 80.6481 28.9595C80.6482 27.5135 81.0847 26.2482 81.9573 25.1637C82.83 24.0491 83.7592 23.1905 85.6851 22.588C87.6111 21.9553 90.1693 21.6387 93.3592 21.6387V20.0118C93.3592 18.7164 93.239 17.5715 92.9983 16.5774C92.7876 15.5531 92.3512 14.7547 91.6891 14.1823C91.0571 13.6099 90.1241 13.3236 88.8903 13.3236C88.0477 13.3236 87.3858 13.4896 86.9043 13.821C86.4228 14.1222 86.0315 14.4986 85.7306 14.9505C85.4597 15.4024 85.2189 15.8696 85.0082 16.3517C84.7976 16.8035 84.5418 17.1953 84.2409 17.5267C83.9701 17.8279 84.0489 17.9785 83.5374 17.9786C82.5142 17.9786 82.0023 17.4661 82.0023 16.4418C82.0024 15.5681 82.3638 14.8299 83.086 14.2274C83.8082 13.6249 84.2711 13.158 85.4146 12.8267C86.5882 12.4953 87.8069 12.3297 89.0708 12.3297ZM93.3592 22.6781C90.9818 22.7082 89.0706 23.0248 87.6261 23.6274C86.2119 24.2299 85.1888 25.013 84.5568 25.9769C83.9249 26.941 83.6086 27.9958 83.6086 29.1406C83.6086 30.2553 83.8797 31.2192 84.4214 32.0326C84.9631 32.8159 85.7908 33.2076 86.9043 33.2076C88.0779 33.2076 89.0711 32.8611 89.8835 32.1682C90.696 31.4753 91.3431 30.5865 91.8246 29.5019C92.3362 28.4174 92.7121 27.2725 92.9528 26.0675C93.1936 24.8323 93.3291 23.7024 93.3592 22.6781Z" fill="#D4A373"/>
<path fill-rule="evenodd" clip-rule="evenodd" d="M138.444 12.3297C140.58 12.3297 142.356 12.9169 143.771 14.0918C145.185 15.2366 145.892 17.0594 145.892 19.5599V24.1243C145.892 26.2632 145.922 27.9202 145.982 29.0951C146.073 30.2701 146.253 31.0987 146.524 31.5807C146.795 32.0326 147.201 32.2588 147.743 32.2588C148.134 32.2588 148.495 32.1982 148.826 32.0777C149.157 31.927 149.473 31.7764 149.774 31.6258L150 32.0777C150 32.0777 149.699 32.2736 149.097 32.6652C148.495 33.0267 147.668 33.4035 146.614 33.7951C145.591 34.1867 144.448 34.3826 143.184 34.3826C143.063 33.8102 142.958 32.9666 142.868 31.8519C142.777 30.7372 142.732 29.5622 142.732 28.3269C142.401 29.3211 141.95 30.3004 141.378 31.2644C140.836 32.2285 140.099 33.0268 139.166 33.6595C138.233 34.2922 137.03 34.6083 135.555 34.6083C133.779 34.6083 132.335 34.1112 131.222 33.1171C130.108 32.1229 129.551 30.737 129.551 28.9595C129.551 27.5135 129.987 26.2482 130.86 25.1637C131.733 24.0491 133.132 23.1905 135.058 22.588C136.984 21.9553 139.542 21.6387 142.732 21.6387V20.0118C142.732 18.7164 142.612 17.5715 142.371 16.5774C142.161 15.5531 141.724 14.7547 141.062 14.1823C140.43 13.6099 139.497 13.3236 138.263 13.3236C137.421 13.3236 136.759 13.4896 136.277 13.821C135.796 14.1222 135.405 14.4986 135.104 14.9505C134.833 15.4024 134.592 15.8696 134.381 16.3517C134.171 16.8035 133.915 17.1953 133.614 17.5267C133.343 17.8279 132.952 17.9785 132.44 17.9786C131.417 17.9786 130.905 17.4661 130.905 16.4418C130.905 15.5681 131.267 14.8299 131.989 14.2274C132.711 13.6249 133.644 13.158 134.788 12.8267C135.961 12.4953 137.18 12.3297 138.444 12.3297ZM142.732 22.6781C140.355 22.7082 138.444 23.0248 136.999 23.6274C135.585 24.2299 134.562 25.013 133.93 25.9769C133.298 26.941 132.982 27.9958 132.982 29.1406C132.982 30.2553 133.253 31.2192 133.794 32.0326C134.336 32.8159 135.164 33.2076 136.277 33.2076C137.451 33.2076 138.444 32.8611 139.257 32.1682C140.069 31.4753 140.716 30.5865 141.198 29.5019C141.709 28.4174 142.085 27.2725 142.326 26.0675C142.567 24.8323 142.702 23.7024 142.732 22.6781Z" fill="#D4A373"/>
<path fill-rule="evenodd" clip-rule="evenodd" d="M117.044 23.6536C117.044 25.7925 117.075 27.4494 117.135 28.6244C117.225 29.7992 117.405 30.6279 117.676 31.11C117.947 31.5619 118.354 31.788 118.895 31.788C119.286 31.788 119.648 31.7274 119.979 31.6069C120.309 31.4563 120.625 31.3057 120.926 31.155L121.152 31.6069C121.152 31.6069 120.851 31.8028 120.249 32.1944C119.648 32.556 118.82 32.9327 117.767 33.3244C116.743 33.716 115.6 33.9119 114.336 33.9119C114.216 33.3395 114.08 32.6316 113.929 31.788C113.809 30.9445 113.749 29.905 113.749 28.6699C113.478 29.6038 113.042 30.4926 112.44 31.3362C111.868 32.1495 111.116 32.8272 110.183 33.3694C109.25 33.8816 108.106 34.1376 106.752 34.1376C105.217 34.1376 103.908 33.8065 102.825 33.1437C101.771 32.4809 100.929 31.622 100.297 30.5675C99.6649 29.4831 99.1985 28.3082 98.8976 27.043C98.6268 25.7777 98.4912 24.5424 98.4912 23.3373C98.4912 21.2284 98.9426 19.3152 99.8454 17.5979C100.748 15.8505 102.043 14.4647 103.728 13.4404C105.413 12.386 107.429 11.859 109.776 11.859C110.619 11.859 111.371 11.9192 112.033 12.0396C112.726 12.13 113.343 12.2503 113.884 12.401V8.10779C113.884 6.57139 113.854 5.36634 113.794 4.49268C113.734 3.58893 113.583 2.92624 113.343 2.50447C113.102 2.08272 112.726 1.81131 112.214 1.69079C111.703 1.57028 110.995 1.51013 110.092 1.51013L110.002 1.01319C110.008 1.01235 110.324 0.967103 110.95 0.877574C111.612 0.787198 112.47 0.696725 113.523 0.606349C114.606 0.515971 115.78 0.470739 117.044 0.470737V23.6536ZM109.416 13.2597C107.971 13.2597 106.752 13.5912 105.759 14.254C104.796 14.9168 104.029 15.7754 103.457 16.8298C102.915 17.854 102.524 18.9537 102.283 20.1286C102.043 21.2734 101.922 22.3431 101.922 23.3373C101.922 24.2712 101.997 25.2954 102.148 26.41C102.328 27.4946 102.614 28.519 103.006 29.4831C103.397 30.417 103.953 31.2004 104.676 31.8331C105.398 32.4356 106.316 32.7368 107.429 32.7369C108.663 32.7369 109.686 32.3601 110.499 31.6069C111.341 30.8538 112.003 29.9048 112.485 28.76C112.966 27.6152 113.312 26.4102 113.523 25.1449C113.764 23.8796 113.884 22.7347 113.884 21.7104V14.796C112.59 13.7717 111.101 13.2597 109.416 13.2597Z" fill="#D4A373"/>
<path d="M127.022 26.2293C127.022 27.7959 127.052 29.0466 127.112 29.9805C127.172 30.8842 127.323 31.5619 127.564 32.0138C127.804 32.4656 128.18 32.7669 128.692 32.9175C129.203 33.0682 129.911 33.1437 130.814 33.1437L130.904 33.6857H119.889L119.98 33.1437C120.913 33.1437 121.635 33.0681 122.146 32.9175C122.688 32.7669 123.079 32.4657 123.32 32.0138C123.561 31.5317 123.711 30.8238 123.771 29.8899C123.832 28.956 123.862 27.7058 123.862 26.1392V22.5236C123.862 20.3244 123.817 18.5771 123.726 17.2816C123.666 15.9862 123.486 15.0223 123.185 14.3896C122.884 13.757 122.432 13.3499 121.83 13.1691C121.259 12.9583 120.446 12.8529 119.393 12.8529L119.303 12.3559C119.303 12.3559 119.679 12.3107 120.431 12.2203C121.214 12.1299 122.192 12.0548 123.366 11.9946C124.539 11.9042 125.758 11.859 127.022 11.859V26.2293Z" fill="#D4A373"/>
<path d="M125.307 2.05258C125.999 2.05262 126.601 2.30862 127.112 2.82074C127.624 3.33288 127.879 3.93541 127.879 4.6283C127.879 5.32118 127.624 5.92371 127.112 6.43585C126.601 6.94797 125.999 7.20398 125.307 7.20402C124.614 7.20402 124.012 6.94801 123.501 6.43585C122.989 5.92372 122.733 5.32115 122.733 4.6283C122.733 3.93544 122.989 3.33287 123.501 2.82074C124.012 2.30858 124.614 2.05258 125.307 2.05258Z" fill="#D4A373"/>
</svg>
